<?xml version="1.0" encoding="UTF-8" standalone="no"?>
<svg
   xmlns:dc="http://purl.org/dc/elements/1.1/"
   xmlns:cc="http://creativecommons.org/ns#"
   xmlns:rdf="http://www.w3.org/1999/02/22-rdf-syntax-ns#"
   xmlns:svg="http://www.w3.org/2000/svg"
   xmlns="http://www.w3.org/2000/svg"
   xmlns:sodipodi="http://sodipodi.sourceforge.net/DTD/sodipodi-0.dtd"
   xmlns:inkscape="http://www.inkscape.org/namespaces/inkscape"
   width="1792"
   height="1792"
   viewBox="0 0 1792 1792"
   version="1.1"
   id="svg3682"
   sodipodi:docname="search.svg"
   inkscape:version="0.92.1 r15371">
  <metadata
     id="metadata3688">
    <rdf:RDF>
      <cc:Work
         rdf:about="">
        <dc:format>image/svg+xml</dc:format>
        <dc:type
           rdf:resource="http://purl.org/dc/dcmitype/StillImage" />
      </cc:Work>
    </rdf:RDF>
  </metadata>
  <defs
     id="defs3686" />
  <sodipodi:namedview
     pagecolor="#ffffff"
     bordercolor="#666666"
     borderopacity="1"
     objecttolerance="10"
     gridtolerance="10"
     guidetolerance="10"
     inkscape:pageopacity="0"
     inkscape:pageshadow="2"
     inkscape:window-width="1920"
     inkscape:window-height="1017"
     id="namedview3684"
     showgrid="false"
     inkscape:zoom="0.37276786"
     inkscape:cx="896"
     inkscape:cy="681.38922"
     inkscape:window-x="-8"
     inkscape:window-y="-8"
     inkscape:window-maximized="1"
     inkscape:current-layer="svg3682" />
  <path
     d="M 1216,832 Q 1216,647 1084.5,515.5 953,384 768,384 583,384 451.5,515.5 320,647 320,832 320,1017 451.5,1148.5 583,1280 768,1280 953,1280 1084.5,1148.5 1216,1017 1216,832 Z m 512,832 q 0,52 -38,90 -38,38 -90,38 -54,0 -90,-38 L 1167,1412 Q 988,1536 768,1536 625,1536 494.5,1480.5 364,1425 269.5,1330.5 175,1236 119.5,1105.5 64,975 64,832 64,689 119.5,558.5 175,428 269.5,333.5 364,239 494.5,183.5 625,128 768,128 q 143,0 273.5,55.5 130.5,55.5 225,150 94.5,94.5 150,225 55.5,130.5 55.5,273.5 0,220 -124,399 l 343,343 q 37,37 37,90 z"
     id="path3680"
     inkscape:connector-curvature="0" />
  <path
     style="fill:#0066ff;stroke:#2a7fff;stroke-width:2.68263483"
     d="m 1568.1337,1786.6197 c -8.7791,-2.1231 -21.4546,-7.0028 -28.1676,-10.8437 -7.4276,-4.2498 -82.6366,-77.2417 -192.1241,-186.4605 l -179.9185,-179.477 -19.9378,13.1131 c -66.6543,43.8386 -151.65597,79.4939 -227.87901,95.5874 -94.68651,19.9919 -204.41408,20.4263 -296.39412,1.1733 C 493.28371,1492.4113 362.71311,1421.7841 269.7367,1328.2426 96.972417,1154.4282 26.535705,897.22859 86.767355,660.13001 104.05897,592.06253 143.49934,502.35455 181.68213,444.24431 250.26175,339.87324 341.09314,259.9978 454.70659,204.15169 c 70.51522,-34.6614 125.07231,-52.56288 201.1976,-66.0177 45.47109,-8.03683 141.10165,-10.04116 192.79876,-4.04091 161.08545,18.69649 315.09715,94.76015 426.05495,210.42099 108.3656,112.95872 178.531,266.71363 192.8922,422.6888 6.1835,67.15831 0.8185,152.35447 -13.9258,221.14168 -14.3071,66.74755 -52.8451,158.88395 -90.9892,217.53675 l -16.4235,25.2537 179.5821,179.9678 c 163.5864,163.9378 180.3244,181.521 187.9168,197.405 23.5719,49.3149 13.8826,105.1936 -24.8904,143.5454 -34.0475,33.6775 -75.4584,45.5285 -120.7864,34.5665 z M 817.63866,1278.3743 c 34.40449,-3.7668 60.74386,-9.2657 91.77451,-19.1599 139.09173,-44.35 258.13443,-171.3372 293.64733,-313.24429 10.3556,-41.38015 13.169,-65.75318 13.169,-114.08508 0,-80.41726 -13.7529,-138.90774 -48.254,-205.22156 C 1130.7606,555.13327 1066.1982,486.52153 996.5988,444.53803 893.40568,382.29019 760.58438,366.03835 639.62454,400.85913 523.16683,434.38386 418.95458,523.48972 361.42041,638.73533 311.9506,737.8274 305.45691,876.43866 345.11412,986.8019 c 43.81196,121.9256 157.57547,232.1324 281.3282,272.5326 58.77862,19.1889 127.41034,26.0233 191.19634,19.0398 z"
     id="path3690"
     inkscape:connector-curvature="0" />
</svg>
